<svg width="14" height="14" viewBox="0 0 48 48" fill="none" xmlns="http://www.w3.org/2000/svg" color="#f5f3f7" class="tw-mr-[-1px]"><path d="M37.7729 31.7942C40.4532 30.6818 42.6963 28.8329 44.1958 26.5C45.6765 24.1601 46.4392 21.4923 46.4021 18.7827C46.4695 16.8712 46.113 14.9671 45.3546 13.1873C44.5962 11.4075 43.4518 9.78957 41.9917 8.43269C39.05 5.67243 34.7444 4.29231 29.075 4.29231H18.95V0H7.00208V4.29423H0V14.4077H7.00208V23.8692H0V33.5096H7.00208V48H18.9542V33.5096H26.0104L34.3208 48H48L37.7729 31.7942ZM33.4896 21.5635C33.0215 22.3787 32.2899 23.0391 31.3964 23.4527C30.5029 23.8663 29.4919 24.0125 28.5042 23.8712H18.9542V14.4096H28.9542C29.8679 14.2828 30.8017 14.4296 31.6184 14.8287C32.435 15.2278 33.0916 15.858 33.4917 16.6269C33.9526 17.3803 34.1949 18.2309 34.1949 19.0962C34.1949 19.9614 33.9526 20.812 33.4917 21.5654" fill="#f5f3f7"></path></svg>