<svg width="20" height="20" viewBox="0 0 20 20" fill="none" xmlns="http://www.w3.org/2000/svg" color="#e42575"><path d="M10 11.25C11.0355 11.25 11.875 10.4105 11.875 9.375C11.875 8.33947 11.0355 7.5 10 7.5C8.96447 7.5 8.125 8.33947 8.125 9.375C8.125 10.4105 8.96447 11.25 10 11.25Z" stroke="#F5F3F7" stroke-linecap="round" stroke-linejoin="round"></path><path d="M10.2268 17.5H9.77369C9.48416 17.5001 9.20358 17.3996 8.97988 17.2158C8.75618 17.032 8.60322 16.7762 8.54712 16.4922L7.79712 12.7422C7.76134 12.561 7.76615 12.3741 7.81123 12.195C7.8563 12.0158 7.94051 11.8489 8.0578 11.7063C8.17508 11.5636 8.32254 11.4486 8.48955 11.3698C8.65656 11.2909 8.83898 11.25 9.02369 11.25H10.9768C11.1615 11.25 11.3439 11.2909 11.5109 11.3698C11.678 11.4486 11.8254 11.5636 11.9427 11.7063C12.06 11.8489 12.1442 12.0158 12.1893 12.195C12.2343 12.3741 12.2392 12.561 12.2034 12.7422L11.4534 16.4922C11.3973 16.7762 11.2443 17.032 11.0206 17.2158C10.7969 17.3996 10.5163 17.5001 10.2268 17.5V17.5Z" stroke="#F5F3F7" stroke-linecap="round" stroke-linejoin="round"></path><path d="M5.33594 11.8126C5.04329 11.055 4.93957 10.2376 5.03372 9.43101C5.12788 8.6244 5.41709 7.85287 5.87635 7.18312C6.3356 6.51336 6.95108 5.96555 7.66956 5.58705C8.38805 5.20855 9.18791 5.01074 10 5.01074C10.8121 5.01074 11.612 5.20855 12.3304 5.58705C13.0489 5.96555 13.6644 6.51336 14.1237 7.18312C14.5829 7.85287 14.8721 8.6244 14.9663 9.43101C15.0604 10.2376 14.9567 11.055 14.6641 11.8126" stroke="#F5F3F7" stroke-linecap="round" stroke-linejoin="round"></path><path d="M5.96875 16.3206C4.60026 15.4483 3.55162 14.1557 2.98024 12.6367C2.40886 11.1178 2.34557 9.45449 2.79988 7.89652C3.25418 6.33856 4.20157 4.96998 5.49982 3.99623C6.79808 3.02248 8.37715 2.49609 10 2.49609C11.6229 2.49609 13.2019 3.02248 14.5002 3.99623C15.7984 4.96998 16.7458 6.33856 17.2001 7.89652C17.6544 9.45449 17.5911 11.1178 17.0198 12.6367C16.4484 14.1557 15.3997 15.4483 14.0313 16.3206" stroke="#F5F3F7" stroke-linecap="round" stroke-linejoin="round"></path></svg>